<?xml version="1.0" encoding="UTF-8"?>
<!DOCTYPE svg PUBLIC "-//W3C//DTD SVG 1.0//EN" "http://www.w3.org/TR/2001/REC-SVG-20010904/DTD/svg10.dtd">
<!-- Creator: CorelDRAW X6 -->
<svg xmlns="http://www.w3.org/2000/svg" xml:space="preserve" width="68mm" height="68mm" version="1.0" style="shape-rendering:geometricPrecision; text-rendering:geometricPrecision; image-rendering:optimizeQuality; fill-rule:evenodd; clip-rule:evenodd"
viewBox="0 0 6800000 6800000"
 xmlns:xlink="http://www.w3.org/1999/xlink"
 data-name="Layer 1">
 <defs>
  <style type="text/css">
   <![CDATA[
    .fil9 {fill:#1D1D1A}
    .fil4 {fill:#2F2E41}
    .fil0 {fill:#737373}
    .fil3 {fill:gray}
    .fil8 {fill:#996633}
    .fil7 {fill:#CC9933}
    .fil5 {fill:#E6E6E6}
    .fil1 {fill:#FBBEBE}
    .fil6 {fill:white}
    .fil2 {fill:black;fill-opacity:0.101961}
   ]]>
  </style>
 </defs>
 <g id="图层_x0020_1_0">
  <metadata id="CorelCorpID_0Corel-Layer"/>
  <path class="fil0" d="M2956160 4346520c0,0 -113790,-98130 -163910,-81260 -49880,16860 -189060,234700 -189060,234700l320900 12830 24940 -35870 7360 -130400 -230 0z"/>
  <path class="fil1" d="M3458980 5147720c17100,-18050 34680,-36340 56770,-47270 27550,-13770 59140,-14490 89540,-19710 23760,-4280 47270,-10930 71260,-12120 23990,-1180 49880,3800 67460,20430 20900,19480 26120,49640 30400,77910 10210,68170 18050,142990 -18290,201180 -24700,39430 -67220,65080 -112350,74580 -27790,5710 -56530,5710 -85030,5710l-267450 -240c-4990,0 -1670,-78860 -480,-86220 3560,-23990 13060,-46800 27080,-66510 39900,-53210 94770,-99760 140850,-147980l240 0 0 240z"/>
  <path class="fil2" d="M3513930 5101060c27560,-13770 56320,-14670 87810,-19730 23710,-4000 50820,-11520 74810,-12710 22420,-1110 38800,3480 50480,8850 15320,7060 28100,21180 35560,39460 5610,13750 8940,31250 11940,50820 10210,68170 16110,142810 -20220,201000 -12560,20050 -28860,37040 -48620,49650 -54540,34800 -203090,32970 -314010,30480 -207490,-4640 -48770,-175790 31790,-265500 29560,-32910 75380,-74770 90460,-82320z"/>
  <path class="fil1" d="M2538350 4051040l-51780 68880c-37050,49400 -80520,102610 -141090,112110 -3800,13060 8790,24230 19950,31830 157480,104750 341320,171970 529680,180520 24230,1180 54160,-2380 63420,-25180 8310,-20670 -6890,-42990 -23280,-58190 -24460,-22810 -55580,-44900 -57950,-78150 -1670,-22560 10920,-42990 18050,-64370 9970,-28980 10210,-60570 10210,-90970 0,-11160 0,-22570 -4270,-32780 -4040,-8550 -9740,-16150 -16630,-22560 -56530,-56530 -132780,-84320 -204750,-114490 -24220,-10210 -68640,-42990 -89780,-14730 -9980,13300 -9740,38010 -17100,53680 -9740,19240 -21140,37530 -34680,54400l0 0 -240 0 240 0z"/>
  <path class="fil2" d="M2538350 4051040l-51780 68880c-37050,49400 -80520,102610 -141090,112110 -3790,13070 8780,24230 19950,31830 157490,104750 341330,171960 529680,180510 24230,1190 54160,-2370 63420,-25170 8310,-20670 -6890,-43000 -23280,-58200 -24220,-22800 -55580,-44890 -57960,-78140 -1660,-22560 10930,-42990 18060,-64370 9980,-28980 10220,-60570 10220,-90960 0,-11170 0,-22570 -4280,-32780 -4040,-8560 -9740,-16160 -16630,-22570 -56530,-56530 -132780,-84320 -204740,-114490 -24230,-10210 -68650,-42990 -89790,-14720 -9970,13300 -9740,38000 -17100,53670 -9740,19230 -21170,37580 -34680,54400z"/>
  <ellipse class="fil1" cx="2871834" cy="3809950" rx="349873" ry="354624"/>
  <path class="fil3" d="M2625760 4367890c-70310,-21610 -146080,-47500 -186930,-109250 -9500,-14500 -17580,-31120 -32540,-39670 -32310,-18530 -69360,11400 -96200,37050 -130880,125410 -307120,206880 -401180,362460 -53680,88840 -75300,194060 -81000,298100 -2850,52730 -1660,106650 13780,157000 46790,151300 211160,240140 262470,390250 31110,90970 8550,179100 -4520,274580l531280 3220 584900 -50c-1420,-11170 -34020,-96990 -19050,-201980 64840,-455100 -45540,-1098910 -300610,-1237980 66240,64760 -3180,148930 -270170,66510l-230 -240z"/>
  <path class="fil4" d="M3437920 5310950l35520 -16770c-44510,-96840 -89030,-193680 -133540,-290520 -20480,-16700 -36770,-6130 -35520,16770l133540 290520z"/>
  <path class="fil1" d="M1913190 5175950c-15440,108790 33490,214490 57240,321850 16680,76310 20590,155810 21070,234270 20,3100 40,6200 40,9300l1950 10c2420,0 4980,20 7480,20l848740 310c136810,-123750 236600,-211540 416650,-247640 25880,-5220 66190,-41450 91130,-50000 139470,-49350 177040,-138430 218600,-231060 46960,-105290 -10620,-145850 -116380,-145850 -23520,0 -46800,4040 -69130,11640 -120180,42520 -179090,181950 -286920,250120 -49880,31590 -108080,46320 -161760,70780 -80280,36340 -149870,93820 -230630,128500 -109500,47030 -232300,49880 -345840,85980 41100,-47740 55110,-115190 47740,-177900 -7360,-62950 -34440,-121850 -67690,-175530 -29690,-48220 -67690,-95490 -120900,-113060 -118760,-56770 -213770,10450 -311160,28260l-230 0z"/>
  <path class="fil5" d="M2573490 3995620c36140,-37600 -67680,-239590 54170,-329850 18760,-8550 45370,-17810 74340,11640 21620,22090 -24330,142630 51480,190150 -2300,-66450 24210,-170950 45820,-192800 19480,-19720 75670,-3090 88740,-34680 35800,-49650 -28150,-89700 2250,-86610 34440,3800 80530,52720 149880,74100 137050,42510 242340,-10490 318590,-131150 4040,-6180 -37770,44890 -116630,18520 -33960,-11400 -81230,-50830 -110680,-67930 -164610,-96200 -418990,-142040 -559130,24700 -81240,96680 -96750,395680 -11210,510180m-37250 -30380l23320 21150 -23320 -21150z"/>
  <polygon class="fil3" points="5217650,5257730 5217600,5283450 5217500,5741380 4658510,5741380 4205980,5741370 4194560,5741310 4187080,5741370 3688530,5741360 3459970,5741370 3266870,5741370 3224650,5741370 3042250,5740340 3042220,5555630 3843740,5254890 "/>
  <polygon class="fil2" points="5217510,5741380 4212690,5741380 4127260,5741380 3829880,5741380 3042160,5741380 3042220,5555630 5218250,5534360 "/>
  <polygon class="fil6" points="5217590,5300200 5217550,5476230 3407830,5489950 3407970,5456710 3779290,5305240 "/>
  <polygon class="fil2" points="5217560,5476230 3407820,5489940 3407970,5456710 5217560,5434340 "/>
  <path class="fil2" d="M1887060 4742230c-13780,56540 -27800,113060 -34680,170780 -3330,28740 -5230,57480 -5230,86460 0,49640 5230,99290 15200,147510 4760,22550 10460,45130 10460,68160 -240,23040 -14120,47380 28670,49980 106180,-70550 196730,-66840 310510,-10310 55580,27550 98100,58200 159390,48460 5700,-34920 -14980,-55110 -7370,-89550 5700,-24940 31820,-41100 38950,-65800 9270,-31590 -14730,-61990 -25420,-92870 -4740,-15440 -7830,-31350 -9490,-47270 -8790,-65550 -20900,-131590 -45130,-192860 -24470,-61520 -62000,-119010 -114970,-157950 -32060,-23530 -68640,-39670 -105690,-52730 -29460,-10230 -71970,-30880 -103800,-25180 -68410,12340 -97150,106410 -111160,163410l-240 -240z"/>
  <path class="fil3" d="M1874470 4729650c-13780,56520 -27790,113060 -34680,170780 -3320,28740 -5230,57480 -5230,86450 0,49640 5230,99290 15210,147510 4750,22560 10450,45130 10450,68160 -240,23040 5290,83420 43550,52040 106180,-70540 181860,-68900 295630,-12370 55580,27550 110690,70780 171970,61050 5700,-34680 -27550,-67700 -19950,-102140 5700,-24940 31830,-41090 38950,-65790 9270,-31600 -14720,-62000 -25410,-92880 -4750,-15440 -7840,-31350 -9500,-47260 -8790,-65560 -20900,-131590 -45130,-192880 -24470,-61510 -62000,-118990 -114970,-157950 -32060,-23510 -68640,-39660 -105690,-52730 -29460,-10450 -71970,-30880 -103800,-25180 -68410,12350 -97150,106410 -111170,163420l-230 -230z"/>
  <g id="_706038368">
   <path class="fil3" d="M4165250 5293670l601360 -131210c23880,53750 33990,180670 2540,248410 5400,42610 -143810,22470 -238090,7670 -130570,-20490 -180820,5200 -306680,9010 -31900,1620 -410550,-61960 -424210,-69390 -203760,-45150 298790,-49630 365080,-64490z"/>
   <path class="fil7" d="M3701610 5185340c33520,-29610 97350,-8620 148100,160 58850,10080 121740,6620 168400,-3840 35740,-7990 75840,-20460 111680,-39800 36020,-19100 68560,-44380 95100,-63210 48390,-34070 96610,-71290 144700,-104330 18490,-12770 14970,-16000 33950,-6670 118800,57860 165560,84590 384270,176900 25190,56690 35850,190560 2680,262000 -24760,53440 -158520,14110 -204600,4660 -75210,-15410 -141130,-36570 -237680,-12130 -64370,16360 -92220,22900 -132320,25080 -93460,4730 -139170,-19400 -227250,-54770 -83180,-33510 -179070,-76040 -242230,-110420 -43450,-23520 -78760,-43850 -45030,-73440l230 -190z"/>
   <path class="fil8" d="M4150690 5129930c2450,-5340 132500,-106050 186640,-132920 75750,122490 -105740,169310 -186640,132920z"/>
   <path class="fil8" d="M4282630 5414940c-16470,3540 -30770,6050 -46100,7600 -24600,2480 -47420,2950 -69420,1300 -8990,-670 -17640,-1680 -26010,-2980 -39690,-6170 -73250,-18900 -108230,-33460 -24050,-10010 -51250,-19480 -79290,-32360 157840,-84190 269010,-66200 329050,59900z"/>
  </g>
  <polygon class="fil9" points="5211120,3163020 5232430,3163020 5232550,924670 5242170,924540 5242170,5742390 5211190,5741310 "/>
  <polygon class="fil9" points="3042090,5757300 3041960,5743070 1544590,5742940 1544490,5736560 5242170,5736560 5241960,5756400 "/>
 </g>
</svg>
