<?xml version="1.0" encoding="UTF-8"?>
<!DOCTYPE svg PUBLIC "-//W3C//DTD SVG 1.0//EN" "http://www.w3.org/TR/2001/REC-SVG-20010904/DTD/svg10.dtd">
<!-- Creator: CorelDRAW X6 -->
<svg xmlns="http://www.w3.org/2000/svg" xml:space="preserve" width="100mm" height="100mm" version="1.0" style="shape-rendering:geometricPrecision; text-rendering:geometricPrecision; image-rendering:optimizeQuality; fill-rule:evenodd; clip-rule:evenodd"
viewBox="0 0 10000000 10000000"
 xmlns:xlink="http://www.w3.org/1999/xlink"
 data-name="Layer 1">
 <defs>
  <style type="text/css">
   <![CDATA[
    .fil9 {fill:#1A1A1A}
    .fil4 {fill:#2F2E41}
    .fil0 {fill:#737373}
    .fil3 {fill:gray}
    .fil8 {fill:#996633}
    .fil7 {fill:#CC9933}
    .fil5 {fill:#E6E6E6}
    .fil1 {fill:#FBBEBE}
    .fil6 {fill:white}
    .fil2 {fill:black;fill-opacity:0.101961}
   ]]>
  </style>
 </defs>
 <g id="图层_x0020_1_0">
  <metadata id="CorelCorpID_0Corel-Layer"/>
  <g id="_704522976">
   <path class="fil0" d="M4111420 5551710c0,0 -188700,-162730 -271820,-134760 -82720,27960 -313520,389220 -313520,389220l532160 21270 41360 -59480 12220 -216250 -400 0z"/>
   <path class="fil1" d="M4945280 6880400c28370,-29940 57510,-60270 94150,-78390 45690,-22850 98080,-24030 148500,-32690 39390,-7090 78390,-18120 118170,-20090 39780,-1970 82720,6300 111870,33870 34660,32300 43330,82330 50420,129200 16940,113050 29940,237130 -30330,333640 -40970,65390 -111480,107930 -186320,123690 -46080,9450 -93750,9450 -141020,9450l-443530 -390c-8270,0 -2760,-130780 -790,-142990 5910,-39780 21670,-77600 44910,-110290 66170,-88240 157160,-165440 233580,-245410l390 0 0 400z"/>
   <path class="fil2" d="M5036590 6799960c45690,-22850 98080,-24020 148500,-32690 39390,-7090 78390,-18120 118180,-20090 37170,-1840 65640,2990 87700,13720 48830,23760 66310,76380 77340,149360 16940,113050 27170,237130 -33080,333630 -20830,33230 -47870,61430 -80650,82330 -90440,57720 -336780,54690 -520750,50550 -344080,-7700 -80870,-291530 52740,-440310 49030,-54570 125010,-124000 150020,-136500z"/>
   <path class="fil1" d="M3418540 5061690l-85870 114230c-61450,81930 -133530,170170 -233980,185920 -6300,21670 14570,40180 33090,52790 261160,173710 566040,285180 878400,299360 40180,1970 89810,-3940 105180,-41750 13780,-34270 -11430,-71300 -38610,-96510 -40570,-37810 -92170,-74440 -96110,-129590 -2760,-37420 18120,-71300 29940,-106750 16540,-48060 16940,-100440 16940,-150860 0,-18520 0,-37420 -7090,-54360 -6700,-14180 -16150,-26790 -27580,-37420 -93750,-93750 -220190,-139840 -339540,-189870 -40180,-16930 -113840,-71290 -148900,-24420 -16540,22060 -16150,63030 -28360,89020 -16150,31910 -35060,62240 -57510,90210l0 0 -390 0 390 0z"/>
   <path class="fil2" d="M3418540 5061690l-85870 114230c-61450,81930 -133530,170170 -233980,185920 -6300,21670 14570,40180 33090,52790 261160,173710 566040,285180 878400,299360 40180,1970 89810,-3940 105180,-41750 13780,-34270 -11430,-71300 -38610,-96510 -40170,-37810 -92170,-74440 -96110,-129590 -2760,-37420 18120,-71300 29940,-106750 16540,-48060 16940,-100440 16940,-150860 0,-18520 0,-37420 -7090,-54360 -6700,-14180 -16150,-26790 -27580,-37420 -93750,-93750 -220190,-139840 -339540,-189870 -40180,-16930 -113840,-71290 -148900,-24420 -16540,22060 -16150,63030 -28360,89020 -16150,31900 -35110,62310 -57510,90210z"/>
   <ellipse class="fil1" cx="3971581" cy="4661876" rx="580221" ry="588099"/>
   <path class="fil3" d="M3563500 5587150c-116600,-35840 -242250,-78770 -310010,-181190 -15750,-24030 -29140,-51600 -53960,-65780 -53570,-30730 -115020,18910 -159530,61450 -217040,207980 -509320,343090 -665310,601100 -89020,147320 -124860,321820 -134320,494350 -4720,87440 -2750,176860 22850,260370 77600,250910 350180,398230 435260,647180 51600,150870 14180,297000 -7480,455350l881060 5340 969980 -80c-2360,-18520 -56420,-160850 -31600,-334960 107540,-754720 -75510,-1822410 -498510,-2053020 109850,107390 -5290,246980 -448040,110290l-390 -400z"/>
   <path class="fil4" d="M4910360 7151100l58900 -27820c-73810,-160600 -147630,-321190 -221450,-481790 -33960,-27680 -60970,-10160 -58910,27820l221460 481790z"/>
   <path class="fil1" d="M2381780 6927210c-25600,180410 55550,355700 94940,533750 27660,126560 34140,258390 34940,388510 30,5140 60,10280 70,15420l3230 10c4010,0 8260,50 12400,50l1407530 500c226890,-205220 392380,-350800 690960,-410680 42930,-8660 109770,-68730 151130,-82910 231290,-81840 293590,-229570 362520,-383190 24420,-54760 48460,-119750 18130,-171740 -61050,-45300 -135110,-70120 -211140,-70120 -38990,0 -77600,6690 -114630,19300 -199310,70510 -297000,301740 -475830,414780 -82710,52390 -179230,76810 -268250,117390 -133130,60260 -248550,155580 -382480,213090 -181590,78000 -385240,82730 -573520,142600 68150,-79170 91390,-191040 79170,-295030 -12210,-104390 -57110,-202080 -112260,-291090 -49230,-79970 -112260,-158360 -200500,-187510 -196950,-94140 -354510,17340 -516020,46870l-390 0z"/>
   <path class="fil5" d="M3476820 4969790c59930,-62350 -112240,-397330 89830,-547010 31120,-14180 75230,-29550 123290,19300 35850,36630 -40350,236530 85370,315340 -3820,-110210 40140,-283510 75990,-319750 32300,-32690 125490,-5110 147160,-57500 59360,-82340 -46690,-148760 3730,-143640 57120,6300 133540,87440 248560,122890 227280,70510 401890,-17390 528330,-217500 6700,-10240 -62630,74450 -193400,30730 -56330,-18910 -134720,-84300 -183560,-112660 -272980,-159530 -694850,-235550 -927250,40970 -134720,160320 -160430,656170 -18590,846060m-61770 -50380l38680 35070 -38680 -35070z"/>
   <polygon class="fil3" points="7861810,7062830 7861730,7105480 7861580,7864910 6934560,7864900 6184090,7864900 6165150,7864800 6152750,7864900 5325980,7864880 4946940,7864900 4626700,7864900 4556670,7864900 4254190,7863180 4254140,7556860 5583370,7058120 "/>
   <polygon class="fil2" points="7861580,7864910 6195230,7864900 6053550,7864900 5560380,7864900 4254040,7864900 4254140,7556860 7862810,7521590 "/>
   <polygon class="fil6" points="7861720,7133260 7861660,7425190 4860460,7447940 4860690,7392810 5476480,7141620 "/>
   <polygon class="fil2" points="7861660,7425190 4860460,7447940 4860690,7392820 7861670,7355720 "/>
   <path class="fil2" d="M2338460 6207940c-22850,93760 -46090,187510 -57520,283230 -5510,47650 -8660,95320 -8660,143380 0,82320 8660,164650 25210,244610 7880,37420 17340,74850 17340,113060 -410,38200 -23420,78560 47560,82870 176070,-116990 326250,-110840 514930,-17100 92170,45700 183550,117390 285190,101230 9450,-57900 -45700,-112260 -33090,-169370 9450,-41360 52780,-68150 64600,-109110 15350,-52390 -24430,-102810 -42160,-154020 -7870,-25600 -12990,-52000 -15750,-78390 -14570,-108720 -34660,-218220 -74840,-319840 -40570,-102030 -102810,-197360 -190650,-261950 -53180,-39000 -113840,-65790 -175290,-87440 -48840,-16950 -119350,-51220 -172130,-41760 -113450,20480 -161110,176460 -184350,271010l-390 -410z"/>
   <path class="fil3" d="M2317580 6187080c-22850,93740 -46090,187490 -57510,283210 -5520,47670 -8670,95330 -8670,143380 0,82320 8670,164650 25210,244620 7880,37420 17330,74840 17330,113050 -390,38200 8780,138330 72240,86290 176070,-116990 301580,-114260 490260,-20510 92170,45690 183560,117380 285190,101230 9450,-57510 -45690,-112260 -33090,-169380 9450,-41360 52780,-68140 64600,-109110 15360,-52390 -24420,-102810 -42150,-154020 -7880,-25600 -13000,-52000 -15760,-78380 -14570,-108720 -34660,-218230 -74840,-319860 -40570,-102010 -102810,-197340 -190650,-261940 -53170,-38990 -113840,-65780 -175280,-87450 -48850,-17330 -119360,-51210 -172140,-41750 -113440,20480 -161110,176470 -184350,271010l-390 -390z"/>
   <g>
    <path class="fil3" d="M6116540 7122440l997280 -217590c39600,89130 56370,299610 4220,411940 8950,70680 -238480,37280 -394850,12730 -216520,-33990 -299860,8630 -508580,14950 -52910,2680 -680840,-102760 -703500,-115090 -337910,-74860 495500,-82300 605430,-106940z"/>
    <path class="fil7" d="M5347650 6942780c55600,-49100 161450,-14290 245620,280 97590,16710 201890,10970 279270,-6370 59270,-13260 125770,-33940 185200,-66000 59730,-31690 113690,-73610 157720,-104840 80240,-56490 160210,-118220 239960,-173010 30660,-21180 24820,-26530 56310,-11060 197010,95940 274560,140280 637260,293360 41770,94010 59450,316020 4450,434500 -41070,88620 -262890,23400 -339310,7720 -124730,-25550 -234050,-60650 -394160,-20120 -106750,27140 -152940,37980 -219440,41590 -154990,7850 -230800,-32160 -376860,-90830 -137950,-55560 -296980,-126080 -401710,-183100 -72060,-39010 -130620,-72730 -74680,-121800l370 -320z"/>
    <path class="fil8" d="M6092400 6850890c4060,-8840 219730,-175860 309520,-220420 125620,203120 -175360,280770 -309520,220420z"/>
    <path class="fil8" d="M6311210 7323550c-27320,5870 -51030,10030 -76460,12600 -40790,4120 -78640,4900 -115120,2160 -14900,-1110 -29250,-2790 -43130,-4940 -65830,-10230 -121470,-31340 -179490,-55490 -39890,-16610 -84980,-32300 -131500,-53670 261770,-139610 446120,-109780 545700,99340z"/>
   </g>
   <polygon class="fil9" points="7850990,3660170 7944830,3660170 7945320,9870 7987690,9660 7987690,7866590 7851290,7864830 "/>
   <polygon class="fil9" points="4253930,7994550 4253720,7900140 1770520,7899280 1770350,7856910 7987690,7856910 7987690,7988410 "/>
  </g>
 </g>
</svg>
