<?xml version="1.0" encoding="UTF-8"?>
<!DOCTYPE svg PUBLIC "-//W3C//DTD SVG 1.0//EN" "http://www.w3.org/TR/2001/REC-SVG-20010904/DTD/svg10.dtd">
<!-- Creator: CorelDRAW X6 -->
<svg xmlns="http://www.w3.org/2000/svg" xml:space="preserve" width="78mm" height="78mm" version="1.0" style="shape-rendering:geometricPrecision; text-rendering:geometricPrecision; image-rendering:optimizeQuality; fill-rule:evenodd; clip-rule:evenodd"
viewBox="0 0 7800000 7800000"
 xmlns:xlink="http://www.w3.org/1999/xlink"
 data-name="Layer 1">
 <defs>
  <style type="text/css">
   <![CDATA[
    .fil9 {fill:#1D1D1A}
    .fil4 {fill:#2F2E41}
    .fil0 {fill:#737373}
    .fil3 {fill:gray}
    .fil8 {fill:#996633}
    .fil7 {fill:#CC9933}
    .fil5 {fill:#E6E6E6}
    .fil1 {fill:#FBBEBE}
    .fil6 {fill:white}
    .fil2 {fill:black;fill-opacity:0.101961}
   ]]>
  </style>
 </defs>
 <g id="图层_x0020_1_0">
  <metadata id="CorelCorpID_0Corel-Layer"/>
  <path class="fil0" d="M3362930 4024710c0,0 -136700,-117890 -196910,-97630 -59930,20260 -227130,281970 -227130,281970l385520 15410 29970 -43090 8840 -156660 -290 0z"/>
  <path class="fil1" d="M3967030 4987270c20540,-21690 41660,-43660 68200,-56790 33100,-16550 71050,-17400 107580,-23680 28530,-5140 56780,-13130 85610,-14550 28820,-1430 59920,4560 81040,24540 25110,23400 31390,59640 36530,93600 12270,81890 21680,171780 -21980,241700 -29680,47370 -80750,78190 -134970,89600 -33390,6850 -67920,6850 -102160,6850l-321320 -290c-5990,0 -2000,-94740 -570,-103580 4280,-28820 15690,-56220 32530,-79900 47940,-63920 113860,-119860 169220,-177780l290 0 0 280z"/>
  <path class="fil2" d="M4033050 4931220c33100,-16550 67660,-17630 105490,-23710 28490,-4800 61060,-13840 89880,-15270 26930,-1330 46610,4180 60640,10630 18410,8480 33760,25450 42720,47410 6740,16520 10740,37550 14350,61050 12270,81900 19360,171580 -24290,241490 -15090,24080 -34680,44500 -58420,59650 -65520,41810 -243990,39610 -377250,36620 -249270,-5580 -58590,-211200 38200,-318980 35510,-39540 90560,-89830 108680,-98890z"/>
  <path class="fil1" d="M2860980 3669720l-62210 82750c-44510,59360 -96730,123280 -169500,134690 -4570,15700 10560,29110 23970,38240 189190,125850 410060,206600 636360,216880 29100,1420 65060,-2860 76190,-30250 9990,-24830 -8280,-51650 -27970,-69920 -29390,-27390 -66770,-53930 -69630,-93880 -1990,-27110 13130,-51650 21690,-77330 11990,-34820 12270,-72770 12270,-109300 0,-13410 0,-27110 -5130,-39380 -4860,-10270 -11700,-19400 -19980,-27110 -67920,-67910 -159520,-101300 -245980,-137540 -29110,-12270 -82470,-51650 -107870,-17690 -11980,15980 -11700,45650 -20540,64490 -11700,23110 -25400,45090 -41670,65350l0 0 -280 0 280 0z"/>
  <path class="fil2" d="M2860980 3669720l-62210 82750c-44510,59350 -96730,123280 -169500,134690 -4560,15700 10550,29110 23970,38240 189200,125850 410070,206600 636350,216870 29110,1430 65070,-2850 76200,-30240 9980,-24830 -8280,-51660 -27970,-69920 -29100,-27390 -66770,-53930 -69630,-93880 -2000,-27110 13130,-51650 21690,-77330 11990,-34820 12280,-72770 12280,-109290 0,-13420 0,-27110 -5140,-39380 -4850,-10280 -11700,-19410 -19980,-27110 -67920,-67920 -159520,-101310 -245980,-137550 -29110,-12270 -82470,-51650 -107870,-17690 -11980,15980 -11700,45660 -20540,64490 -11700,23100 -25440,45140 -41670,65350z"/>
  <ellipse class="fil1" cx="3261631" cy="3380074" rx="420338" ry="426045"/>
  <path class="fil3" d="M2966000 4050390c-84470,-25970 -175500,-57070 -224580,-131260 -11420,-17410 -21120,-37390 -39100,-47660 -38810,-22260 -83320,13690 -115570,44510 -157230,150670 -368970,248550 -481980,435470 -64490,106720 -90460,233140 -97300,358120 -3430,63350 -2000,128130 16550,188630 56210,181770 253680,288500 315320,468850 37380,109290 10270,215160 -5420,329870l638280 3870 702700 -50c-1710,-13420 -40880,-116530 -22890,-242660 77900,-546760 -54710,-1320240 -361150,-1487310 79580,77800 -3830,178920 -324580,79900l-280 -280z"/>
  <path class="fil4" d="M3941720 5183380l42680 -20150c-53480,-116350 -106960,-232690 -160430,-349030 -24610,-20060 -44180,-7370 -42680,20150l160430 349030z"/>
  <path class="fil1" d="M2109910 5021190c-18550,130690 40240,257680 68770,386660 20040,91690 24740,187200 25320,281460 20,3720 40,7450 50,11170l2340 10c2900,0 5980,30 8980,30l1019680 370c164370,-148670 284260,-254140 500560,-297520 31100,-6270 79530,-49790 109490,-60060 167550,-59290 212690,-166310 262630,-277600 56410,-126490 -12770,-175220 -139830,-175220 -28250,0 -56220,4850 -83040,13990 -144390,51080 -215160,218590 -344720,300480 -59920,37960 -129840,55650 -194330,85040 -96450,43660 -180060,112720 -277080,154380 -131560,56500 -279090,59930 -415490,103300 49370,-57360 66210,-138400 57350,-213730 -8840,-75620 -41370,-146390 -81320,-210880 -35670,-57930 -81330,-114720 -145250,-135840 -142680,-68200 -256830,12560 -373830,33960l-280 0z"/>
  <path class="fil5" d="M2903200 3603140c43420,-45170 -81310,-287850 65080,-396280 22540,-10270 54500,-21410 89310,13990 25970,26530 -29220,171340 61850,228440 -2760,-79840 29080,-205390 55050,-231640 23410,-23690 90910,-3700 106610,-41660 43010,-59640 -33820,-107770 2700,-104060 41380,4570 96750,63350 180070,89030 164660,51080 291150,-12600 382750,-157560 4850,-7420 -45370,53930 -140110,22260 -40810,-13700 -97590,-61070 -132980,-81620 -197750,-115570 -503380,-170640 -671740,29680 -97590,116140 -116230,475360 -13460,612920m-44760 -36490l28020 25410 -28020 -25410z"/>
  <polygon class="fil3" points="6079890,5119430 6079830,5150330 6079720,5700500 5408140,5700490 4864470,5700490 4850750,5700410 4841770,5700490 4242820,5700470 3968220,5700490 3736230,5700490 3685500,5700490 3466360,5699240 3466330,5477330 4429280,5116020 "/>
  <polygon class="fil2" points="6079720,5700500 4872540,5700490 4769900,5700490 4412630,5700490 3466260,5700490 3466330,5477330 6080610,5451780 "/>
  <polygon class="fil6" points="6079820,5170460 6079780,5381940 3905580,5398430 3905740,5358490 4351850,5176510 "/>
  <polygon class="fil2" points="6079780,5381940 3905570,5398420 3905740,5358490 6079790,5331620 "/>
  <path class="fil2" d="M2078520 4500120c-16550,67920 -33390,135830 -41660,205170 -4000,34530 -6280,69060 -6280,103880 0,59630 6280,119280 18260,177210 5710,27100 12560,54220 12560,81890 -290,27680 -16960,56920 34450,60040 127560,-84750 236350,-80300 373050,-12380 66770,33100 117850,69920 191480,58220 6850,-41950 -17990,-66210 -8850,-107590 6850,-29960 38230,-49370 46800,-79050 11130,-37950 -17700,-74470 -30540,-111570 -5700,-18550 -9410,-37670 -11410,-56790 -10560,-78760 -25110,-158090 -54220,-231710 -29390,-73910 -74480,-142970 -138120,-189760 -38520,-28260 -82460,-47660 -126980,-63350 -35390,-12280 -86460,-37100 -124700,-30250 -82190,14830 -116720,127840 -133550,196320l-290 -280z"/>
  <path class="fil3" d="M2063400 4485000c-16560,67910 -33390,135830 -41670,205170 -3990,34530 -6270,69060 -6270,103870 0,59640 6270,119280 18260,177210 5710,27110 12560,54220 12560,81900 -290,27680 6360,100210 52320,62510 127560,-84750 218490,-82770 355170,-14850 66770,33100 132980,85030 206600,73330 6850,-41660 -33100,-81320 -23970,-122700 6850,-29960 38240,-49370 46800,-79040 11130,-37960 -17690,-74490 -30530,-111590 -5710,-18540 -9420,-37660 -11420,-56780 -10550,-78760 -25100,-158090 -54210,-231720 -29400,-73900 -74490,-142960 -138120,-189760 -38520,-28250 -82470,-47660 -126980,-63350 -35390,-12560 -86470,-37100 -124710,-30250 -82180,14840 -116710,127840 -133550,196330l-280 -280z"/>
  <g id="_701987568">
   <path class="fil3" d="M4815540 5162610l722470 -157630c28690,64580 40840,217060 3050,298440 6490,51190 -172760,27000 -286040,9210 -156860,-24620 -217230,6260 -368440,10830 -38330,1950 -493230,-74430 -509640,-83370 -244800,-54240 358960,-59620 438600,-77480z"/>
   <path class="fil7" d="M4258520 5032460c40270,-35570 116960,-10350 177940,200 70690,12110 146250,7960 202310,-4610 42940,-9610 91120,-24590 134160,-47810 43280,-22960 82370,-53330 114260,-75950 58130,-40920 116070,-85650 173850,-125340 22200,-15340 17980,-19220 40790,-8010 142720,69500 198900,101620 461660,212520 30260,68110 43070,228940 3220,314770 -29750,64200 -190450,16950 -245810,5600 -90360,-18520 -169550,-43940 -285550,-14580 -77330,19660 -110790,27520 -158970,30130 -112280,5690 -167200,-23300 -273020,-65800 -99930,-40250 -215140,-91340 -291010,-132650 -52200,-28260 -94630,-52690 -54100,-88240l270 -230z"/>
   <path class="fil8" d="M4798050 4965890c2940,-6400 159180,-127400 224230,-159680 91000,147150 -127040,203400 -224230,159680z"/>
   <path class="fil8" d="M4956570 5308310c-19800,4260 -36980,7270 -55400,9130 -29550,2980 -56970,3550 -83390,1570 -10800,-810 -21200,-2030 -31250,-3590 -47690,-7410 -88000,-22700 -130030,-40200 -28900,-12030 -61570,-23390 -95270,-38880 189640,-101140 323190,-79520 395340,71970z"/>
  </g>
  <polygon class="fil9" points="6072050,2654390 6140030,2654390 6140390,9950 6171080,9800 6171080,5701710 6072260,5700430 "/>
  <polygon class="fil9" points="3466180,5794410 3466020,5726020 1667090,5725390 1666960,5694700 6171080,5694700 6171080,5789960 "/>
 </g>
</svg>
