<?xml version="1.0" encoding="UTF-8"?>
<!DOCTYPE svg PUBLIC "-//W3C//DTD SVG 1.0//EN" "http://www.w3.org/TR/2001/REC-SVG-20010904/DTD/svg10.dtd">
<!-- Creator: CorelDRAW X6 -->
<svg xmlns="http://www.w3.org/2000/svg" xml:space="preserve" width="50mm" height="50mm" version="1.0" style="shape-rendering:geometricPrecision; text-rendering:geometricPrecision; image-rendering:optimizeQuality; fill-rule:evenodd; clip-rule:evenodd"
viewBox="0 0 5000000 5000000"
 xmlns:xlink="http://www.w3.org/1999/xlink"
 data-name="Layer 1">
 <defs>
  <style type="text/css">
   <![CDATA[
    .fil9 {fill:#1D1D1A}
    .fil4 {fill:#2F2E41}
    .fil0 {fill:#737373}
    .fil3 {fill:gray}
    .fil8 {fill:#996633}
    .fil7 {fill:#CC9933}
    .fil5 {fill:#E6E6E6}
    .fil1 {fill:#FBBEBE}
    .fil6 {fill:white}
    .fil2 {fill:black;fill-opacity:0.101961}
   ]]>
  </style>
 </defs>
 <g id="图层_x0020_1_0">
  <metadata id="CorelCorpID_0Corel-Layer"/>
  <path class="fil0" d="M2270620 2953210c0,0 -57970,-49990 -83500,-41400 -25420,8600 -96320,119570 -96320,119570l163480 6540 12710 -18280 3750 -66430 -120 0z"/>
  <path class="fil1" d="M2526770 3361380c8720,-9200 17670,-18520 28920,-24080 14040,-7020 30130,-7390 45620,-10050 12100,-2180 24080,-5560 36300,-6170 12220,-600 25410,1940 34370,10410 10650,9920 13310,25290 15490,39690 5200,34730 9190,72840 -9320,102490 -12580,20080 -34240,33150 -57240,37990 -14150,2910 -28790,2910 -43310,2910l-136260 -120c-2540,0 -840,-40180 -240,-43930 1820,-12220 6660,-23840 13800,-33880 20330,-27100 48280,-50820 71750,-75390l120 0 0 130z"/>
  <path class="fil2" d="M2554780 3337610c14030,-7020 28680,-7480 44720,-10050 12080,-2040 25890,-5880 38110,-6480 11430,-560 19770,1770 25720,4510 7800,3600 14310,10790 18110,20100 2870,7010 4560,15920 6090,25890 5200,34730 8210,72760 -10300,102400 -6400,10210 -14710,18870 -24770,25290 -27790,17730 -103470,16800 -159970,15530 -105700,-2370 -24850,-89560 16200,-135250 15050,-16770 38390,-38090 46090,-41940z"/>
  <path class="fil1" d="M2057770 2802680l-26380 35090c-18880,25170 -41020,52280 -71880,57120 -1930,6650 4480,12340 10170,16210 80220,53360 173880,87610 269840,91960 12340,610 27590,-1210 32310,-12820 4230,-10530 -3510,-21900 -11860,-29650 -12470,-11610 -28320,-22870 -29530,-39810 -840,-11490 5570,-21900 9200,-32790 5080,-14760 5200,-30860 5200,-46340 0,-5690 0,-11500 -2180,-16700 -2050,-4360 -4960,-8230 -8470,-11500 -28800,-28800 -67640,-42960 -104300,-58320 -12340,-5210 -34970,-21900 -45740,-7510 -5080,6780 -4960,19370 -8710,27350 -4970,9800 -10770,19120 -17670,27710l0 0 -120 0 120 0z"/>
  <path class="fil2" d="M2057770 2802680l-26380 35090c-18880,25170 -41020,52280 -71880,57120 -1930,6650 4480,12340 10160,16220 80230,53360 173890,87600 269850,91950 12340,610 27590,-1200 32310,-12820 4230,-10530 -3510,-21900 -11870,-29640 -12330,-11630 -28310,-22880 -29520,-39810 -850,-11500 5570,-21910 9200,-32800 5080,-14770 5200,-30860 5200,-46350 0,-5680 0,-11490 -2180,-16690 -2050,-4360 -4950,-8240 -8470,-11500 -28800,-28790 -67640,-42950 -104300,-58320 -12350,-5210 -34970,-21900 -45750,-7510 -5080,6780 -4950,19360 -8700,27350 -4960,9800 -10790,19140 -17670,27710z"/>
  <ellipse class="fil1" cx="2227659" cy="2679862" rx="178239" ry="180659"/>
  <path class="fil3" d="M2102300 2964100c-35820,-11010 -74420,-24200 -95230,-55660 -4840,-7380 -8950,-15850 -16580,-20210 -16460,-9440 -35330,5810 -49010,18880 -66670,63890 -156450,105390 -204370,184650 -27350,45260 -38360,98860 -41260,151860 -1460,26860 -850,54330 7010,79990 23840,77080 107570,122330 133710,198810 15850,46340 4360,91230 -2290,139880l270650 1640 297970 -30c-720,-5690 -17330,-49410 -9710,-102900 33040,-231840 -23190,-559830 -153140,-630670 33750,32990 -1620,75870 -137630,33880l-120 -120z"/>
  <path class="fil4" d="M2516040 3444530l18100 -8540c-22680,-49340 -45350,-98670 -68030,-148000 -10430,-8510 -18730,-3130 -18090,8540l68020 148000z"/>
  <path class="fil1" d="M1739290 3375760c-7870,55420 17060,109270 29160,163960 8490,38880 10490,79380 10730,119350 10,1570 20,3160 20,4740l1000 0c1230,0 2530,10 3810,10l432380 160c69700,-63050 120530,-107770 212250,-126160 13190,-2660 33730,-21110 46430,-25470 71050,-25140 90190,-70520 111370,-117720 23920,-53630 -5420,-74290 -59300,-74290 -11970,0 -23830,2050 -35210,5930 -61230,21660 -91230,92690 -146170,127420 -25410,16090 -55060,23590 -82400,36050 -40900,18520 -76360,47800 -117500,65470 -55780,23960 -118340,25410 -176180,43800 20930,-24320 28070,-58680 24320,-90630 -3750,-32070 -17550,-62080 -34490,-89420 -15120,-24570 -34480,-48650 -61590,-57600 -60500,-28920 -108900,5320 -158510,14400l-120 0z"/>
  <path class="fil5" d="M2075670 2774450c18410,-19150 -34480,-122060 27600,-168040 9560,-4350 23110,-9070 37870,5930 11010,11260 -12390,72660 26230,96870 -1180,-33850 12330,-87090 23340,-98220 9920,-10050 38550,-1570 45210,-17670 18230,-25290 -14350,-45690 1140,-44120 17550,1940 41020,26860 76360,37750 69820,21660 123450,-5340 162300,-66810 2060,-3150 -19240,22870 -59420,9430 -17300,-5800 -41380,-25890 -56380,-34600 -83860,-49010 -213450,-72360 -284850,12580 -41380,49250 -49280,201570 -5710,259910m-18970 -15480l11880 10770 -11880 -10770z"/>
  <polygon class="fil3" points="3422710,3417420 3422680,3430520 3422640,3663810 3137860,3663810 2907320,3663810 2901510,3663780 2897700,3663810 2643720,3663800 2527280,3663810 2428910,3663810 2407400,3663810 2314470,3663280 2314460,3569180 2722790,3415970 "/>
  <polygon class="fil2" points="3422630,3663810 2910750,3663800 2867230,3663800 2715730,3663800 2314430,3663800 2314460,3569170 3423020,3558340 "/>
  <polygon class="fil6" points="3422680,3439050 3422660,3528730 2500720,3535720 2500790,3518790 2689950,3441620 "/>
  <polygon class="fil2" points="3422660,3528730 2500720,3535720 2500780,3518790 3422670,3507400 "/>
  <path class="fil2" d="M1725980 3154800c-7020,28810 -14160,57600 -17670,87000 -1700,14650 -2670,29290 -2670,44050 0,25290 2670,50580 7750,75150 2420,11490 5330,22990 5330,34720 -130,11740 -7190,24140 14600,25460 54100,-35930 100220,-34050 158190,-5250 28320,14030 49980,29650 81190,24690 2910,-17790 -7630,-28080 -3750,-45620 2910,-12710 16210,-20940 19840,-33520 4730,-16090 -7500,-31580 -12940,-47310 -2420,-7870 -3990,-15980 -4840,-24080 -4470,-33400 -10650,-67040 -22990,-98260 -12470,-31340 -31590,-60630 -58570,-80460 -16340,-11990 -34970,-20220 -53850,-26860 -15000,-5210 -36660,-15740 -52870,-12830 -34850,6280 -49490,54200 -56630,83240l-120 -120z"/>
  <path class="fil3" d="M1719560 3148390c-7020,28800 -14160,57600 -17660,87000 -1700,14650 -2670,29290 -2670,44050 0,25290 2670,50580 7750,75140 2420,11500 5320,22990 5320,34730 -120,11740 2700,42500 22190,26510 54090,-35940 92650,-35100 150610,-6300 28310,14040 56380,36060 87600,31100 2910,-17670 -14030,-34490 -10160,-52040 2900,-12700 16210,-20930 19840,-33510 4720,-16100 -7500,-31590 -12940,-47320 -2420,-7860 -4000,-15970 -4840,-24070 -4480,-33400 -10650,-67040 -23000,-98260 -12460,-31340 -31580,-60620 -58560,-80470 -16340,-11980 -34970,-20210 -53850,-26860 -15000,-5330 -36660,-15730 -52880,-12830 -34850,6290 -49490,54210 -56630,83250l-120 -120z"/>
  <g id="_704482016">
   <path class="fil3" d="M2886580 3435730l306350 -66840c12170,27380 17320,92040 1300,126540 2750,21710 -73260,11450 -121300,3910 -66510,-10440 -92110,2650 -156230,4590 -16250,830 -209150,-31560 -216110,-35350 -103800,-23000 152210,-25280 185990,-32850z"/>
   <path class="fil7" d="M2650380 3380540c17080,-15080 49590,-4390 75450,80 29980,5140 62020,3380 85790,-1950 18210,-4080 38640,-10430 56890,-20280 18350,-9730 34930,-22610 48450,-32200 24650,-17360 49220,-36320 73720,-53150 9410,-6510 7620,-8150 17290,-3400 60520,29470 84350,43090 195770,90120 12830,28880 18260,97080 1360,133480 -12610,27220 -80760,7180 -104230,2370 -38320,-7850 -71900,-18630 -121080,-6180 -32800,8330 -46990,11660 -67410,12770 -47620,2410 -70910,-9880 -115770,-27900 -42380,-17070 -91230,-38730 -123400,-56250 -22140,-11980 -40130,-22340 -22950,-37410l120 -100z"/>
   <path class="fil8" d="M2879160 3352310c1250,-2720 67500,-54020 95080,-67710 38590,62400 -53870,86250 -95080,67710z"/>
   <path class="fil8" d="M2946380 3497510c-8400,1800 -15680,3080 -23490,3870 -12530,1260 -24160,1500 -35370,660 -4580,-340 -8980,-850 -13250,-1520 -20220,-3140 -37310,-9620 -55130,-17040 -12260,-5100 -26110,-9920 -40400,-16490 80410,-42890 137050,-33720 167640,30520z"/>
  </g>
  <polygon class="fil9" points="3419380,1862500 3430240,1862500 3430300,298890 3435200,298800 3435200,3664320 3419420,3663570 "/>
  <polygon class="fil9" points="2314390,3671920 2314330,3664670 1551510,3664600 1551460,3661350 3435200,3661350 3435090,3671460 "/>
 </g>
</svg>
